<?xml version="1.0" encoding="utf-8"?>
<!-- Generator: Adobe Illustrator 20.1.0, SVG Export Plug-In . SVG Version: 6.00 Build 0)  -->
<svg version="1.1" id="Layer_1" xmlns="http://www.w3.org/2000/svg" xmlns:xlink="http://www.w3.org/1999/xlink" x="0px" y="0px"
	 viewBox="0 0 460 190" enable-background="new 0 0 460 190" xml:space="preserve">
<rect x="-0.663" y="-0.088" display="none" width="460.663" height="190.088"/>
<path fill="#FFFFFF" d="M49.039,19.693c4,0,13.301,0.6,16.901,2c1,0.4,1.7,0.8,1.7,2c0,1.6-1.2,4.5-2.9,4.5c-0.4,0-0.7-0.1-1-0.2
	c-4.4-1.2-9.101-1.9-13.701-1.9c-15.601,0-25.501,10.201-25.501,25.702c0,18.401,13.901,34.502,30.802,40.502
	c1,0.4,2.101,0.7,3.3,0.7c2.8,0,3.9-2,3.9-4.601c0-2.3,0.2-9.7,0.2-18.501c0-4.9-0.2-9.801-0.2-14.701c0-2.7-0.8-4.201-3.7-4.201
	c-4.3,0-8.5,0.2-12.801,0.2c-2.1,0-2.1-1.3-2.1-3.1c0-1.7,0-3.1,2.1-3.1c6.3,0,12.601,0.3,18.901,0.3c2.8,0,4.4,0.7,4.4,3.7
	c0,5.8-0.2,11.701-0.2,17.501c0,8.601,0.2,17.301,0.2,25.902c0,4.6-2,7.8-6.9,7.8c-5.9,0-12-2.2-17.101-4.9
	c-16.101-8.6-28.402-25.501-28.402-44.203C16.937,31.094,29.237,19.693,49.039,19.693z"/>
<path fill="#FFFFFF" d="M116.639,99.298c-5.8,0.9-12.101,1.2-18.001,1.2c-7.701,0-19.701,0.1-23.102-8.401
	c-1.4-3.5-1.7-8-1.7-11.701c0-8.7,0.4-17.401,0.4-26.102c0-10.101-0.4-20.301-0.4-30.402c0-2.8,2-3.2,4.2-3.2
	c6.9,0.1,15.501,0.4,23.102,0.4c4.6,0,9.201-0.4,13.701-0.4c1.8,0,1.8,1.7,1.8,3c0,1.2,0,3.3-1.7,3.3c-2.7,0-5.4-0.2-8-0.2
	c-4.9-0.2-9.701-0.2-14.501-0.2c-2.3,0-4.5-0.1-6.8,0c-3.6,0.2-4.4,1.9-4.6,5.3c-0.2,3.3-0.3,6.5-0.3,9.801c0,2.5,0.2,3.8,3,3.8
	c5.701,0,11.501,0,17.201-0.1c2.8-0.1,5.601-0.3,8.4-0.3c2.101,0,2.101,1.5,2.101,3.2c0,1.8,0,3.1-2.101,3.1
	c-8.5,0-17.101-0.3-25.602-0.3c-2.1,0-3.1,0.7-3.1,2.9c0,7.601-0.1,15.101-0.1,22.701c0,14.401,3.9,17.801,18.201,17.801
	c5.701,0,11.201-0.6,16.801-1.8c0.5-0.1,1-0.2,1.5-0.2c2.1,0,2.8,2.4,2.8,4.1C119.839,98.598,118.339,98.998,116.639,99.298z"/>
<path fill="#FFFFFF" d="M339.434,28.694c0.399-2.3,1-7.1,3.3-8.2c0.601-0.3,1.2-0.4,1.801-0.4c2.6,0,5.399,1.7,7.4,3.101
	c7.9,5.3,15.301,11.601,21.801,18.501c1.8,1.9,3.4,3.8,5.101,5.8c0.3,0.4,0.8,0.9,1.4,0.9c1,0,1.199-1.7,1.199-2.4
	c0-7.3-1.1-15.401-1.5-22.702v-0.4c-0.1-2.1,2.2-2.4,3.9-2.4c2,0,3.2,0,3.4,2.3c0.3,4,0.3,8.201,0.4,12.301
	c0.199,8.701,0.199,17.501,0.199,26.002c0,4,0,26.801-0.5,37.202c-0.1,1.9-2.899,1.9-4.3,1.9c-1.3,0-3,0-3-1.7v-0.5
	c1.2-11.4,1.2-22.901,1.2-34.302c0-2.5-0.601-4.5-2.2-6.5c-6.501-8.301-17.901-20.101-26.902-25.802c-1.1-0.7-2.7-1.7-4.1-1.7
	c-2,0-2.4,2.7-2.7,4.201c-1.801,10-2.5,23.301-2.5,33.502s1.1,20.401,1.6,30.602v0.5c0.101,1.5-1.5,1.6-2.8,1.6
	c-1.301,0-4.2,0.1-4.4-1.7c-0.342-3.212-0.726-17.538-0.726-17.538l5.215-20.126l-4.291-15.991
	C337.432,44.742,338.45,34.595,339.434,28.694z"/>
<path fill="#FFFFFF" d="M435.836,99.298c-5.801,0.9-12.101,1.2-18.001,1.2c-7.701,0-19.701,0.1-23.102-8.401
	c-1.4-3.5-1.7-8-1.7-11.701c0-8.7,0.4-17.401,0.4-26.102c0-10.101-0.4-20.301-0.4-30.402c0-2.8,2-3.2,4.2-3.2
	c6.9,0.1,15.501,0.4,23.102,0.4c4.601,0,9.2-0.4,13.701-0.4c1.8,0,1.8,1.7,1.8,3c0,1.2,0,3.3-1.7,3.3c-2.7,0-5.4-0.2-8-0.2
	c-4.9-0.2-9.701-0.2-14.501-0.2c-2.301,0-4.501-0.1-6.801,0c-3.601,0.2-4.4,1.9-4.601,5.3c-0.2,3.3-0.3,6.5-0.3,9.801
	c0,2.5,0.2,3.8,3,3.8c5.7,0,11.501,0,17.201-0.1c2.8-0.1,5.601-0.3,8.4-0.3c2.101,0,2.101,1.5,2.101,3.2c0,1.8,0,3.1-2.101,3.1
	c-8.5,0-17.101-0.3-25.602-0.3c-2.1,0-3.1,0.7-3.1,2.9c0,7.601-0.101,15.101-0.101,22.701c0,14.401,3.9,17.801,18.201,17.801
	c5.7,0,11.201-0.6,16.801-1.8c0.5-0.1,1-0.2,1.501-0.2c2.1,0,2.8,2.4,2.8,4.1C439.037,98.598,437.537,98.998,435.836,99.298z"/>
<path fill="#FFFFFF" d="M210.335,100.798c-5.8,0-12.912-3.531-18.112-6.231c-0.801-0.4-15.224-8.366-15.224-9.367
	c0-1.5,1.874-4.967,3.474-4.967c0.4,0,15,8.917,15,8.917c5.801,2.8,9.262,5.448,15.763,5.448c7.4,0,17.201-5.5,17.201-13.701
	c0-16.901-32.702-28.102-32.702-44.703c0-11.701,9.784-19.715,21.398-18.919c7.298,0.5,10.242,4.062,13.048,5.875
	c1,0.4,9.042,5.83,9.042,7.031c0,1.4-2.193,4.594-3.792,4.594c-0.3,0-5.694-4.07-9.122-6.545c-4.34-2.836-6.128-4.705-10.253-4.705
	c-5.9,0-12.822,5.969-12.822,12.469c0,13.701,32.902,24.301,32.902,45.303C236.137,94.198,221.436,100.798,210.335,100.798z"/>
<path fill="#FFFFFF" d="M217.132,24.639c0,1.1,0.101,2.455,1.701,2.455c1.898,0,2.42-0.003,4.308-0.046
	c-2.787-1.911-3.181-2.446-6.009-2.701C217.131,24.419,217.132,24.57,217.132,24.639z"/>
<path fill="#FFFFFF" d="M271.931,20.793c-8.3,0-15.096,0.4-23.296,0.4c-7.185,0-12.644-0.179-19.829-0.295
	c1.16,0.837,2.785,2.015,3.744,2.635c0.54,0.216,2.144,1.492,4.417,3.184c1.38-0.025,1.381-0.024,2.767-0.024c1.6,0,2.5,0.6,2.6,2.2
	c0.2,3.1,0.5,20.301,0.5,30.402c0,12.901-0.5,25.802-0.5,38.702c0,2.1,2.101,2.1,3.7,2.1c1.601,0,3.7,0,3.7-2.1
	c0-13-0.5-25.901-0.5-38.902c0-8.7,0.2-25.102,0.5-29.902c0.101-1.5,0.7-2.5,2.4-2.5c7.101,0,11.313,0.381,18.414,0.381
	c1.601,0,2.507-2.2,2.507-3.3C273.056,22.575,273.532,20.793,271.931,20.793z"/>
<path fill="#FFFFFF" d="M182.739,30.394c1.301,0,1.601,2,1.801,2.9c0.5,2.5,0.7,5.1,1,7.6c0.7,6.101,1.3,12.101,1.6,18.201
	c0.4,8.5,0.798,15.722,0.798,24.222c0,0.028-0.002-1.264,0,0c2.833,1.706,5.642,3.248,6.871,3.997
	c-0.199-9.851-0.657-18.24-1.269-28.019c-0.699-10.801-1.3-21.801-3.399-32.502c-0.601-2.9-2.001-6.8-5.501-6.8
	c-2.4,0-4.4,1.8-5.9,3.5c-6.5,7.601-11.601,16.101-17.401,24.202c-0.7,1-2,3-3.5,3c-1.6,0-2.8-2-3.601-3
	c-5.8-8.101-10.9-16.601-17.401-24.202c-1.5-1.7-3.5-3.5-5.9-3.5c-3.5,0-4.9,3.9-5.5,6.8c-2.1,10.701-2.7,21.701-3.4,32.502
	c-0.8,12.801-1.4,25.702-1.4,38.603c0,2.1,2.1,2.2,3.7,2.2s3.7-0.1,3.7-2.2c0-1.4-0.1-2.8-0.2-4.201c-0.1-3.1-0.2-6.1-0.2-9.2
	c0-8.5,0.4-16.901,0.8-25.402c0.3-6.1,0.9-12.201,1.6-18.201c0.3-2.5,0.5-5.1,1-7.6c0.2-0.9,0.5-2.9,1.8-2.9c1,0,1.9,1.1,2.5,1.8
	c1.4,1.6,2.6,3.5,3.8,5.2c4.3,6,8.3,12.101,12.201,18.301c1.3,2.1,3.7,5.7,6.5,5.7c2.8,0,5.1-3.6,6.4-5.7
	c3.9-6.201,7.8-12.401,12.1-18.301c1.301-1.7,2.501-3.6,3.9-5.2C180.84,31.494,181.739,30.394,182.739,30.394z"/>
<path fill="#FFFFFF" d="M191.973,95.733c-0.272-0.136-1.916-0.723-4.233-2.036c-0.017,0.531,0.017-0.536,0,0
	c-0.101,1.4-0.2,2.8-0.2,4.201c0,2.1,2.1,2.2,3.7,2.2s3.7-0.1,3.7-2.2c0-0.653,0.003,0,0-0.653
	C194.001,96.778,192.824,96.175,191.973,95.733z"/>
<polygon fill="#C67529" points="296.466,39.164 287.612,41.559 277.154,23.414 296.821,18.164 "/>
<polygon fill="#C67529" points="307.071,41.559 298.48,39.277 298.862,18.226 317.946,23.309 "/>
<polygon fill="#C67529" points="314.794,48.471 308.44,42.116 319.336,23.866 333.479,37.986 "/>
<polygon fill="#9A5C25" points="316.207,70.285 318.634,61.431 340.279,61.639 335.029,81.326 "/>
<polygon fill="#9A5C25" points="308.946,78.222 315.196,71.951 333.946,83.014 320.009,96.972 "/>
<polygon fill="#9A5C25" points="298.446,81.639 307.196,79.264 318.3,98.035 298.863,103.264 "/>
<polygon fill="#9A5C25" points="287.738,79.368 296.446,81.681 296.821,103.264 277.425,98.16 "/>
<polygon fill="#9A5C25" points="279.55,71.91 285.967,78.347 275.654,97.16 261.404,82.889 "/>
<polygon fill="#C67529" points="278.55,50.809 276.196,59.497 255.216,59.893 260.362,40.518 "/>
<polygon fill="#C67529" points="285.841,42.539 279.446,49.018 261.154,38.643 275.404,24.372 "/>
<polygon fill="#C67529" points="315.474,55.676 314.133,50.622 307.071,43.58 297.383,40.997 287.591,43.622 280.633,50.559 
	278.008,60.393 279.352,65.422 "/>
<polygon fill="#C67529" points="279.338,65.406 280.592,70.097 287.717,77.243 297.384,79.826 307.113,77.222 314.196,70.139 
	316.759,60.556 315.46,55.66 "/>
<polygon fill="#C67529" points="337.486,49.71 334.904,40.101 316.206,50.617 317.423,55.123 "/>
<polygon fill="#9A5C25" points="337.471,49.69 317.408,55.103 318.571,59.41 340.134,59.597 "/>
<polygon fill="#9A5C25" points="257.733,71.22 260.384,81.118 278.55,70.139 277.405,65.912 "/>
<polygon fill="#C67529" points="277.389,65.902 276.196,61.497 255.216,61.872 257.717,71.21 "/>
<g>
	<path fill="#C67529" d="M28.503,115.438c-1.569,0-2.808,0.522-3.716,1.567s-1.362,2.476-1.362,4.292
		c0,1.868,0.438,3.312,1.313,4.331s2.124,1.528,3.745,1.528c0.996,0,2.132-0.179,3.408-0.537v1.455
		c-0.99,0.371-2.21,0.557-3.662,0.557c-2.103,0-3.726-0.638-4.868-1.914s-1.714-3.089-1.714-5.439c0-1.472,0.275-2.761,0.825-3.867
		s1.344-1.96,2.383-2.559s2.261-0.898,3.667-0.898c1.498,0,2.806,0.273,3.926,0.82l-0.703,1.426
		C30.665,115.692,29.584,115.438,28.503,115.438z"/>
	<path fill="#C67529" d="M43.001,123.074c0,1.745-0.439,3.107-1.318,4.087s-2.093,1.47-3.643,1.47c-0.957,0-1.807-0.225-2.549-0.674
		s-1.315-1.094-1.719-1.934s-0.605-1.823-0.605-2.949c0-1.745,0.436-3.104,1.309-4.077s2.083-1.46,3.633-1.46
		c1.498,0,2.687,0.498,3.569,1.494S43.001,121.375,43.001,123.074z M34.847,123.074c0,1.367,0.273,2.409,0.82,3.125
		s1.351,1.074,2.412,1.074s1.867-0.356,2.417-1.069s0.825-1.756,0.825-3.13c0-1.36-0.275-2.395-0.825-3.101s-1.362-1.06-2.437-1.06
		c-1.061,0-1.862,0.349-2.402,1.045S34.847,121.694,34.847,123.074z"/>
	<path fill="#C67529" d="M58.486,128.436v-6.963c0-0.853-0.182-1.492-0.547-1.919s-0.931-0.64-1.699-0.64
		c-1.009,0-1.754,0.29-2.236,0.869s-0.723,1.472-0.723,2.676v5.977H51.66v-6.963c0-0.853-0.182-1.492-0.547-1.919
		s-0.934-0.64-1.709-0.64c-1.016,0-1.759,0.305-2.231,0.913s-0.708,1.606-0.708,2.993v5.615h-1.621v-10.703h1.318l0.264,1.465h0.078
		c0.306-0.521,0.737-0.928,1.294-1.221s1.18-0.439,1.87-0.439c1.673,0,2.767,0.605,3.281,1.816h0.078
		c0.319-0.56,0.781-1.003,1.387-1.328s1.295-0.488,2.07-0.488c1.211,0,2.118,0.311,2.72,0.933s0.903,1.616,0.903,2.983v6.982H58.486
		z"/>
	<path fill="#C67529" d="M67.427,128.631c-0.697,0-1.333-0.129-1.909-0.386s-1.06-0.652-1.45-1.187h-0.117
		c0.078,0.625,0.117,1.218,0.117,1.777v4.404h-1.621v-15.508h1.318l0.225,1.465h0.078c0.417-0.586,0.902-1.009,1.455-1.27
		s1.188-0.391,1.904-0.391c1.419,0,2.515,0.485,3.286,1.455s1.157,2.331,1.157,4.082c0,1.758-0.392,3.123-1.177,4.097
		S68.82,128.631,67.427,128.631z M67.193,118.914c-1.094,0-1.885,0.303-2.373,0.908s-0.739,1.569-0.752,2.891v0.361
		c0,1.504,0.25,2.58,0.752,3.228s1.305,0.972,2.412,0.972c0.924,0,1.649-0.374,2.173-1.123s0.786-1.78,0.786-3.096
		c0-1.335-0.262-2.358-0.786-3.071S68.144,118.914,67.193,118.914z"/>
	<path fill="#C67529" d="M82.941,123.074c0,1.745-0.439,3.107-1.318,4.087s-2.093,1.47-3.643,1.47c-0.957,0-1.807-0.225-2.549-0.674
		s-1.315-1.094-1.719-1.934s-0.605-1.823-0.605-2.949c0-1.745,0.436-3.104,1.309-4.077s2.083-1.46,3.633-1.46
		c1.498,0,2.687,0.498,3.569,1.494S82.941,121.375,82.941,123.074z M74.787,123.074c0,1.367,0.273,2.409,0.82,3.125
		s1.351,1.074,2.412,1.074s1.867-0.356,2.417-1.069s0.825-1.756,0.825-3.13c0-1.36-0.275-2.395-0.825-3.101s-1.362-1.06-2.437-1.06
		c-1.061,0-1.862,0.349-2.402,1.045S74.787,121.694,74.787,123.074z"/>
	<path fill="#C67529" d="M92.107,128.436v-6.924c0-0.872-0.199-1.523-0.596-1.953s-1.019-0.645-1.865-0.645
		c-1.12,0-1.94,0.303-2.461,0.908s-0.781,1.604-0.781,2.998v5.615h-1.621v-10.703h1.318l0.264,1.465h0.078
		c0.332-0.527,0.797-0.936,1.396-1.226s1.266-0.435,2.002-0.435c1.289,0,2.259,0.311,2.91,0.933s0.977,1.616,0.977,2.983v6.982
		H92.107z"/>
	<path fill="#C67529" d="M100.58,128.631c-1.582,0-2.831-0.481-3.745-1.445s-1.372-2.302-1.372-4.014
		c0-1.726,0.425-3.096,1.274-4.111s1.991-1.523,3.423-1.523c1.341,0,2.402,0.441,3.184,1.323s1.172,2.046,1.172,3.491v1.025h-7.373
		c0.033,1.257,0.35,2.21,0.952,2.861s1.45,0.977,2.544,0.977c1.152,0,2.292-0.241,3.418-0.723v1.445
		c-0.573,0.247-1.115,0.425-1.626,0.532S101.302,128.631,100.58,128.631z M100.14,118.895c-0.859,0-1.544,0.28-2.056,0.84
		s-0.812,1.335-0.903,2.324h5.596c0-1.022-0.228-1.805-0.684-2.349S100.986,118.895,100.14,118.895z"/>
	<path fill="#C67529" d="M113.603,128.436v-6.924c0-0.872-0.199-1.523-0.596-1.953s-1.019-0.645-1.865-0.645
		c-1.12,0-1.94,0.303-2.461,0.908s-0.781,1.604-0.781,2.998v5.615h-1.621v-10.703h1.318l0.264,1.465h0.078
		c0.332-0.527,0.797-0.936,1.396-1.226s1.266-0.435,2.002-0.435c1.289,0,2.259,0.311,2.91,0.933s0.977,1.616,0.977,2.983v6.982
		H113.603z"/>
	<path fill="#C67529" d="M121.011,127.293c0.287,0,0.563-0.021,0.83-0.063s0.479-0.086,0.635-0.132v1.24
		c-0.176,0.085-0.435,0.154-0.776,0.21s-0.649,0.083-0.923,0.083c-2.07,0-3.105-1.091-3.105-3.271v-6.367h-1.533v-0.781l1.533-0.674
		l0.684-2.285h0.938v2.48h3.105v1.26h-3.105v6.299c0,0.645,0.153,1.14,0.459,1.484S120.478,127.293,121.011,127.293z"/>
	<path fill="#C67529" d="M122.716,123.817v-1.484h4.795v1.484H122.716z"/>
	<path fill="#C67529" d="M141.687,121.277c0,2.285-0.578,4.082-1.733,5.391s-2.762,1.963-4.819,1.963
		c-2.103,0-3.726-0.643-4.868-1.929s-1.714-3.101-1.714-5.444c0-2.324,0.573-4.126,1.719-5.405s2.773-1.919,4.883-1.919
		c2.051,0,3.652,0.651,4.805,1.953S141.687,118.985,141.687,121.277z M130.31,121.277c0,1.934,0.412,3.4,1.235,4.399
		s2.02,1.499,3.589,1.499c1.582,0,2.777-0.498,3.584-1.494s1.211-2.464,1.211-4.404c0-1.921-0.402-3.377-1.206-4.37
		s-1.994-1.489-3.569-1.489c-1.582,0-2.785,0.5-3.608,1.499S130.31,119.37,130.31,121.277z"/>
	<path fill="#C67529" d="M148.509,117.537c0.475,0,0.902,0.039,1.279,0.117l-0.225,1.504c-0.443-0.098-0.833-0.146-1.172-0.146
		c-0.866,0-1.606,0.352-2.222,1.055s-0.923,1.579-0.923,2.627v5.742h-1.621v-10.703h1.338l0.186,1.982h0.078
		c0.397-0.696,0.875-1.233,1.436-1.611S147.839,117.537,148.509,117.537z"/>
	<path fill="#C67529" d="M150.654,114.832c0-0.371,0.091-0.643,0.273-0.815s0.41-0.259,0.684-0.259c0.26,0,0.485,0.088,0.674,0.264
		s0.283,0.446,0.283,0.811s-0.094,0.637-0.283,0.815s-0.414,0.269-0.674,0.269c-0.273,0-0.501-0.09-0.684-0.269
		S150.654,115.196,150.654,114.832z M152.412,128.436h-1.621v-10.703h1.621V128.436z"/>
	<path fill="#C67529" d="M159.371,128.631c-1.582,0-2.831-0.481-3.745-1.445s-1.372-2.302-1.372-4.014
		c0-1.726,0.425-3.096,1.274-4.111s1.991-1.523,3.423-1.523c1.341,0,2.402,0.441,3.184,1.323s1.172,2.046,1.172,3.491v1.025h-7.373
		c0.033,1.257,0.35,2.21,0.952,2.861s1.45,0.977,2.544,0.977c1.152,0,2.292-0.241,3.418-0.723v1.445
		c-0.573,0.247-1.115,0.425-1.626,0.532S160.093,128.631,159.371,128.631z M158.931,118.895c-0.859,0-1.544,0.28-2.056,0.84
		s-0.812,1.335-0.903,2.324h5.596c0-1.022-0.228-1.805-0.684-2.349S159.777,118.895,158.931,118.895z"/>
	<path fill="#C67529" d="M172.394,128.436v-6.924c0-0.872-0.199-1.523-0.596-1.953s-1.019-0.645-1.865-0.645
		c-1.12,0-1.94,0.303-2.461,0.908s-0.781,1.604-0.781,2.998v5.615h-1.621v-10.703h1.318l0.264,1.465h0.078
		c0.332-0.527,0.797-0.936,1.396-1.226s1.266-0.435,2.002-0.435c1.289,0,2.259,0.311,2.91,0.933s0.977,1.616,0.977,2.983v6.982
		H172.394z"/>
	<path fill="#C67529" d="M179.802,127.293c0.287,0,0.563-0.021,0.83-0.063s0.479-0.086,0.635-0.132v1.24
		c-0.176,0.085-0.435,0.154-0.776,0.21s-0.649,0.083-0.923,0.083c-2.07,0-3.105-1.091-3.105-3.271v-6.367h-1.533v-0.781l1.533-0.674
		l0.684-2.285h0.938v2.48h3.105v1.26h-3.105v6.299c0,0.645,0.153,1.14,0.459,1.484S179.269,127.293,179.802,127.293z"/>
	<path fill="#C67529" d="M186.927,128.631c-1.582,0-2.831-0.481-3.745-1.445s-1.372-2.302-1.372-4.014
		c0-1.726,0.425-3.096,1.274-4.111s1.991-1.523,3.423-1.523c1.341,0,2.402,0.441,3.184,1.323s1.172,2.046,1.172,3.491v1.025h-7.373
		c0.033,1.257,0.35,2.21,0.952,2.861s1.45,0.977,2.544,0.977c1.152,0,2.292-0.241,3.418-0.723v1.445
		c-0.573,0.247-1.115,0.425-1.626,0.532S187.65,128.631,186.927,128.631z M186.488,118.895c-0.859,0-1.544,0.28-2.056,0.84
		s-0.812,1.335-0.903,2.324h5.596c0-1.022-0.228-1.805-0.684-2.349S187.334,118.895,186.488,118.895z"/>
	<path fill="#C67529" d="M199.912,127h-0.088c-0.749,1.087-1.869,1.631-3.359,1.631c-1.4,0-2.489-0.479-3.267-1.436
		s-1.167-2.317-1.167-4.082s0.391-3.135,1.172-4.111s1.869-1.465,3.262-1.465c1.452,0,2.565,0.527,3.34,1.582h0.127l-0.068-0.771
		l-0.039-0.752v-4.355h1.621v15.195h-1.318L199.912,127z M196.669,127.274c1.107,0,1.909-0.301,2.407-0.903s0.747-1.574,0.747-2.915
		v-0.342c0-1.517-0.252-2.6-0.757-3.247s-1.31-0.972-2.417-0.972c-0.951,0-1.678,0.369-2.183,1.108s-0.757,1.782-0.757,3.13
		c0,1.367,0.25,2.399,0.752,3.096S195.699,127.274,196.669,127.274z"/>
	<path fill="#C67529" d="M206.242,132.195c-0.612,0-1.094-0.088-1.445-0.264v-1.416c0.462,0.13,0.944,0.195,1.445,0.195
		c0.645,0,1.134-0.195,1.47-0.586s0.503-0.954,0.503-1.689v-14.277h1.66v14.141c0,1.237-0.312,2.195-0.938,2.876
		S207.414,132.195,206.242,132.195z"/>
	<path fill="#C67529" d="M219.001,128.436l-0.322-1.523h-0.078c-0.534,0.671-1.066,1.125-1.597,1.362s-1.193,0.356-1.987,0.356
		c-1.061,0-1.893-0.273-2.495-0.82s-0.903-1.325-0.903-2.334c0-2.161,1.729-3.294,5.186-3.398l1.816-0.059v-0.664
		c0-0.84-0.181-1.46-0.542-1.86s-0.939-0.601-1.733-0.601c-0.892,0-1.901,0.273-3.027,0.82l-0.498-1.24
		c0.527-0.286,1.105-0.511,1.733-0.674s1.258-0.244,1.89-0.244c1.276,0,2.222,0.283,2.837,0.85s0.923,1.475,0.923,2.725v7.305
		H219.001z M215.339,127.293c1.009,0,1.802-0.276,2.378-0.83s0.864-1.328,0.864-2.324v-0.967l-1.621,0.068
		c-1.289,0.046-2.218,0.246-2.788,0.601s-0.854,0.906-0.854,1.655c0,0.586,0.177,1.032,0.532,1.338S214.701,127.293,215.339,127.293
		z"/>
	<path fill="#C67529" d="M224.886,128.436l-4.062-10.703h1.738l2.305,6.348c0.521,1.484,0.827,2.448,0.918,2.891h0.078
		c0.072-0.345,0.298-1.06,0.679-2.144s1.235-3.449,2.563-7.095h1.738l-4.062,10.703H224.886z"/>
	<path fill="#C67529" d="M238.144,128.436l-0.322-1.523h-0.078c-0.534,0.671-1.066,1.125-1.597,1.362s-1.193,0.356-1.987,0.356
		c-1.061,0-1.893-0.273-2.495-0.82s-0.903-1.325-0.903-2.334c0-2.161,1.729-3.294,5.186-3.398l1.816-0.059v-0.664
		c0-0.84-0.181-1.46-0.542-1.86s-0.939-0.601-1.733-0.601c-0.892,0-1.901,0.273-3.027,0.82l-0.498-1.24
		c0.527-0.286,1.105-0.511,1.733-0.674s1.258-0.244,1.89-0.244c1.276,0,2.222,0.283,2.837,0.85s0.923,1.475,0.923,2.725v7.305
		H238.144z M234.482,127.293c1.009,0,1.802-0.276,2.378-0.83s0.864-1.328,0.864-2.324v-0.967l-1.621,0.068
		c-1.289,0.046-2.218,0.246-2.788,0.601s-0.854,0.906-0.854,1.655c0,0.586,0.177,1.032,0.532,1.338S233.844,127.293,234.482,127.293
		z"/>
	<path fill="#C67529" d="M249.986,124.637c0,1.257-0.456,2.236-1.367,2.939s-2.148,1.055-3.711,1.055
		c-1.693,0-2.995-0.218-3.906-0.654v-1.602c0.586,0.247,1.224,0.442,1.914,0.586s1.374,0.215,2.051,0.215
		c1.107,0,1.94-0.21,2.5-0.63s0.84-1.004,0.84-1.753c0-0.495-0.099-0.9-0.298-1.216s-0.531-0.607-0.996-0.874
		s-1.173-0.569-2.124-0.908c-1.328-0.476-2.277-1.038-2.847-1.689s-0.854-1.501-0.854-2.549c0-1.101,0.414-1.976,1.24-2.627
		s1.92-0.977,3.281-0.977c1.419,0,2.725,0.261,3.916,0.781l-0.518,1.445c-1.178-0.495-2.324-0.742-3.438-0.742
		c-0.879,0-1.566,0.188-2.061,0.566s-0.742,0.901-0.742,1.572c0,0.495,0.091,0.9,0.273,1.216s0.49,0.605,0.923,0.869
		s1.095,0.555,1.987,0.874c1.498,0.534,2.528,1.106,3.091,1.719S249.986,123.66,249.986,124.637z"/>
	<path fill="#C67529" d="M255.939,128.631c-1.549,0-2.749-0.477-3.599-1.431s-1.274-2.303-1.274-4.048
		c0-1.79,0.431-3.174,1.294-4.15s2.091-1.465,3.687-1.465c0.514,0,1.029,0.056,1.543,0.166s0.918,0.241,1.211,0.391l-0.498,1.377
		c-0.358-0.144-0.749-0.262-1.172-0.356s-0.797-0.142-1.123-0.142c-2.174,0-3.262,1.387-3.262,4.16c0,1.315,0.265,2.324,0.796,3.027
		s1.317,1.055,2.358,1.055c0.892,0,1.807-0.192,2.744-0.576v1.436C257.928,128.445,257.026,128.631,255.939,128.631z"/>
	<path fill="#C67529" d="M265.066,117.537c0.475,0,0.902,0.039,1.279,0.117l-0.225,1.504c-0.443-0.098-0.833-0.146-1.172-0.146
		c-0.866,0-1.606,0.352-2.222,1.055s-0.923,1.579-0.923,2.627v5.742h-1.621v-10.703h1.338l0.186,1.982h0.078
		c0.397-0.696,0.875-1.233,1.436-1.611S264.396,117.537,265.066,117.537z"/>
	<path fill="#C67529" d="M267.21,114.832c0-0.371,0.091-0.643,0.273-0.815s0.41-0.259,0.684-0.259c0.26,0,0.485,0.088,0.674,0.264
		s0.283,0.446,0.283,0.811s-0.094,0.637-0.283,0.815s-0.414,0.269-0.674,0.269c-0.273,0-0.501-0.09-0.684-0.269
		S267.21,115.196,267.21,114.832z M268.968,128.436h-1.621v-10.703h1.621V128.436z"/>
	<path fill="#C67529" d="M276.386,128.631c-0.697,0-1.333-0.129-1.909-0.386s-1.06-0.652-1.45-1.187h-0.117
		c0.078,0.625,0.117,1.218,0.117,1.777v4.404h-1.621v-15.508h1.318l0.225,1.465h0.078c0.417-0.586,0.902-1.009,1.455-1.27
		s1.188-0.391,1.904-0.391c1.419,0,2.515,0.485,3.286,1.455s1.157,2.331,1.157,4.082c0,1.758-0.392,3.123-1.177,4.097
		S277.779,128.631,276.386,128.631z M276.152,118.914c-1.094,0-1.885,0.303-2.373,0.908s-0.739,1.569-0.752,2.891v0.361
		c0,1.504,0.25,2.58,0.752,3.228s1.305,0.972,2.412,0.972c0.924,0,1.649-0.374,2.173-1.123s0.786-1.78,0.786-3.096
		c0-1.335-0.262-2.358-0.786-3.071S277.103,118.914,276.152,118.914z"/>
	<path fill="#C67529" d="M286.119,127.293c0.287,0,0.563-0.021,0.83-0.063s0.479-0.086,0.635-0.132v1.24
		c-0.176,0.085-0.435,0.154-0.776,0.21s-0.649,0.083-0.923,0.083c-2.07,0-3.105-1.091-3.105-3.271v-6.367h-1.533v-0.781l1.533-0.674
		l0.684-2.285h0.938v2.48h3.105v1.26H284.4v6.299c0,0.645,0.153,1.14,0.459,1.484S285.585,127.293,286.119,127.293z"/>
	<path fill="#C67529" d="M297.556,128.436h-1.66v-12.803h-4.521v-1.475h10.703v1.475h-4.521V128.436z"/>
	<path fill="#C67529" d="M307.503,128.631c-1.582,0-2.831-0.481-3.745-1.445s-1.372-2.302-1.372-4.014
		c0-1.726,0.425-3.096,1.274-4.111s1.991-1.523,3.423-1.523c1.342,0,2.402,0.441,3.184,1.323s1.172,2.046,1.172,3.491v1.025h-7.373
		c0.033,1.257,0.35,2.21,0.952,2.861s1.45,0.977,2.544,0.977c1.152,0,2.292-0.241,3.418-0.723v1.445
		c-0.572,0.247-1.114,0.425-1.626,0.532C308.843,128.577,308.226,128.631,307.503,128.631z M307.064,118.895
		c-0.859,0-1.544,0.28-2.056,0.84s-0.812,1.335-0.903,2.324h5.596c0-1.022-0.228-1.805-0.684-2.349
		C308.562,119.166,307.911,118.895,307.064,118.895z"/>
	<path fill="#C67529" d="M317.48,128.631c-1.549,0-2.749-0.477-3.599-1.431s-1.274-2.303-1.274-4.048c0-1.79,0.432-3.174,1.294-4.15
		c0.863-0.977,2.092-1.465,3.687-1.465c0.515,0,1.029,0.056,1.543,0.166c0.515,0.11,0.918,0.241,1.211,0.391l-0.498,1.377
		c-0.357-0.144-0.748-0.262-1.172-0.356c-0.423-0.095-0.797-0.142-1.123-0.142c-2.174,0-3.262,1.387-3.262,4.16
		c0,1.315,0.266,2.324,0.796,3.027c0.531,0.703,1.317,1.055,2.358,1.055c0.893,0,1.807-0.192,2.744-0.576v1.436
		C319.469,128.445,318.568,128.631,317.48,128.631z"/>
	<path fill="#C67529" d="M329.048,128.436v-6.924c0-0.872-0.198-1.523-0.596-1.953c-0.396-0.43-1.019-0.645-1.865-0.645
		c-1.126,0-1.948,0.306-2.466,0.918s-0.776,1.614-0.776,3.008v5.596h-1.621V113.24h1.621v4.6c0,0.554-0.025,1.013-0.078,1.377h0.098
		c0.319-0.515,0.773-0.92,1.362-1.216c0.59-0.296,1.262-0.444,2.017-0.444c1.309,0,2.29,0.311,2.944,0.933s0.981,1.609,0.981,2.964
		v6.982H329.048z"/>
	<path fill="#C67529" d="M340.324,128.436v-6.924c0-0.872-0.198-1.523-0.596-1.953c-0.396-0.43-1.019-0.645-1.865-0.645
		c-1.119,0-1.939,0.303-2.461,0.908c-0.521,0.605-0.781,1.604-0.781,2.998v5.615H333v-10.703h1.318l0.264,1.465h0.078
		c0.332-0.527,0.798-0.936,1.396-1.226c0.6-0.29,1.267-0.435,2.002-0.435c1.289,0,2.26,0.311,2.91,0.933
		c0.651,0.622,0.977,1.616,0.977,2.983v6.982H340.324z"/>
	<path fill="#C67529" d="M353.513,123.074c0,1.745-0.439,3.107-1.318,4.087s-2.093,1.47-3.643,1.47
		c-0.957,0-1.807-0.225-2.549-0.674s-1.314-1.094-1.719-1.934c-0.403-0.84-0.605-1.823-0.605-2.949c0-1.745,0.437-3.104,1.309-4.077
		c0.873-0.974,2.084-1.46,3.633-1.46c1.498,0,2.688,0.498,3.569,1.494C353.073,120.027,353.513,121.375,353.513,123.074z
		 M345.359,123.074c0,1.367,0.273,2.409,0.82,3.125s1.352,1.074,2.412,1.074c1.062,0,1.867-0.356,2.417-1.069
		c0.551-0.713,0.825-1.756,0.825-3.13c0-1.36-0.274-2.395-0.825-3.101c-0.55-0.706-1.362-1.06-2.437-1.06
		c-1.061,0-1.861,0.349-2.402,1.045C345.629,120.655,345.359,121.694,345.359,123.074z"/>
	<path fill="#C67529" d="M356.976,128.436h-1.621V113.24h1.621V128.436z"/>
	<path fill="#C67529" d="M368.652,123.074c0,1.745-0.439,3.107-1.318,4.087s-2.093,1.47-3.643,1.47
		c-0.957,0-1.807-0.225-2.549-0.674s-1.314-1.094-1.719-1.934c-0.403-0.84-0.605-1.823-0.605-2.949c0-1.745,0.437-3.104,1.309-4.077
		c0.873-0.974,2.084-1.46,3.633-1.46c1.498,0,2.688,0.498,3.569,1.494C368.211,120.027,368.652,121.375,368.652,123.074z
		 M360.498,123.074c0,1.367,0.273,2.409,0.82,3.125s1.352,1.074,2.412,1.074c1.062,0,1.867-0.356,2.417-1.069
		c0.551-0.713,0.825-1.756,0.825-3.13c0-1.36-0.274-2.395-0.825-3.101c-0.55-0.706-1.362-1.06-2.437-1.06
		c-1.061,0-1.861,0.349-2.402,1.045C360.768,120.655,360.498,121.694,360.498,123.074z"/>
	<path fill="#C67529" d="M379.253,117.733v1.025l-1.982,0.234c0.183,0.228,0.346,0.525,0.488,0.894
		c0.144,0.368,0.215,0.783,0.215,1.245c0,1.048-0.357,1.885-1.074,2.51c-0.716,0.625-1.699,0.938-2.949,0.938
		c-0.318,0-0.618-0.026-0.898-0.078c-0.689,0.364-1.035,0.823-1.035,1.377c0,0.293,0.121,0.51,0.361,0.649
		c0.241,0.14,0.654,0.21,1.24,0.21h1.895c1.159,0,2.05,0.244,2.671,0.732c0.622,0.488,0.933,1.198,0.933,2.129
		c0,1.185-0.475,2.088-1.426,2.71c-0.95,0.622-2.337,0.933-4.16,0.933c-1.399,0-2.479-0.261-3.237-0.781
		c-0.758-0.521-1.138-1.257-1.138-2.207c0-0.651,0.209-1.214,0.625-1.689c0.417-0.476,1.003-0.798,1.758-0.967
		c-0.273-0.124-0.503-0.315-0.688-0.576s-0.278-0.563-0.278-0.908c0-0.391,0.104-0.732,0.312-1.025
		c0.209-0.293,0.537-0.576,0.986-0.85c-0.553-0.228-1.004-0.615-1.353-1.162c-0.348-0.547-0.522-1.172-0.522-1.875
		c0-1.172,0.352-2.075,1.055-2.71s1.699-0.952,2.988-0.952c0.561,0,1.064,0.065,1.514,0.195H379.253z M370.718,130.233
		c0,0.579,0.244,1.019,0.732,1.318s1.188,0.449,2.1,0.449c1.361,0,2.368-0.203,3.022-0.61s0.981-0.959,0.981-1.655
		c0-0.579-0.179-0.981-0.537-1.206c-0.357-0.225-1.031-0.337-2.021-0.337h-1.943c-0.735,0-1.309,0.176-1.719,0.527
		S370.718,129.575,370.718,130.233z M371.597,121.16c0,0.749,0.212,1.315,0.635,1.699c0.424,0.384,1.013,0.576,1.768,0.576
		c1.582,0,2.373-0.769,2.373-2.305c0-1.608-0.801-2.412-2.402-2.412c-0.762,0-1.348,0.205-1.758,0.615
		S371.597,120.353,371.597,121.16z"/>
	<path fill="#C67529" d="M378.751,117.733h1.738l2.344,6.104c0.515,1.394,0.834,2.399,0.957,3.018h0.078
		c0.085-0.332,0.263-0.9,0.532-1.704c0.271-0.804,1.154-3.276,2.651-7.417h1.738l-4.6,12.188c-0.455,1.204-0.987,2.059-1.597,2.563
		c-0.608,0.505-1.355,0.757-2.241,0.757c-0.494,0-0.982-0.056-1.465-0.166v-1.299c0.358,0.078,0.759,0.117,1.201,0.117
		c1.113,0,1.908-0.625,2.383-1.875l0.596-1.523L378.751,117.733z"/>
	<path fill="#C67529" d="M402.025,124.637c0,1.257-0.455,2.236-1.367,2.939c-0.911,0.703-2.148,1.055-3.711,1.055
		c-1.692,0-2.994-0.218-3.906-0.654v-1.602c0.586,0.247,1.225,0.442,1.914,0.586c0.69,0.144,1.374,0.215,2.051,0.215
		c1.107,0,1.94-0.21,2.5-0.63c0.561-0.42,0.84-1.004,0.84-1.753c0-0.495-0.099-0.9-0.298-1.216c-0.198-0.315-0.53-0.607-0.996-0.874
		c-0.465-0.267-1.173-0.569-2.124-0.908c-1.328-0.476-2.276-1.038-2.847-1.689c-0.569-0.651-0.854-1.501-0.854-2.549
		c0-1.101,0.414-1.976,1.24-2.627c0.827-0.651,1.921-0.977,3.281-0.977c1.42,0,2.725,0.261,3.916,0.781l-0.518,1.445
		c-1.178-0.495-2.324-0.742-3.438-0.742c-0.879,0-1.565,0.188-2.061,0.566c-0.494,0.378-0.742,0.901-0.742,1.572
		c0,0.495,0.092,0.9,0.273,1.216c0.183,0.315,0.49,0.605,0.923,0.869c0.434,0.264,1.096,0.555,1.987,0.874
		c1.498,0.534,2.528,1.106,3.091,1.719C401.744,122.866,402.025,123.66,402.025,124.637z"/>
	<path fill="#C67529" d="M407.158,127.293c0.287,0,0.564-0.021,0.83-0.063c0.268-0.042,0.479-0.086,0.635-0.132v1.24
		c-0.176,0.085-0.434,0.154-0.775,0.21s-0.65,0.083-0.924,0.083c-2.07,0-3.105-1.091-3.105-3.271v-6.367h-1.533v-0.781l1.533-0.674
		l0.684-2.285h0.938v2.48h3.105v1.26h-3.105v6.299c0,0.645,0.154,1.14,0.459,1.484C406.205,127.12,406.625,127.293,407.158,127.293z
		"/>
	<path fill="#C67529" d="M416.343,128.436l-0.322-1.523h-0.078c-0.534,0.671-1.066,1.125-1.597,1.362s-1.193,0.356-1.987,0.356
		c-1.062,0-1.893-0.273-2.495-0.82s-0.903-1.325-0.903-2.334c0-2.161,1.729-3.294,5.186-3.398l1.816-0.059v-0.664
		c0-0.84-0.181-1.46-0.542-1.86s-0.939-0.601-1.733-0.601c-0.892,0-1.901,0.273-3.027,0.82l-0.498-1.24
		c0.527-0.286,1.105-0.511,1.733-0.674s1.258-0.244,1.89-0.244c1.276,0,2.222,0.283,2.837,0.85s0.923,1.475,0.923,2.725v7.305
		H416.343z M412.681,127.293c1.009,0,1.802-0.276,2.378-0.83s0.864-1.328,0.864-2.324v-0.967l-1.621,0.068
		c-1.289,0.046-2.219,0.246-2.788,0.601s-0.854,0.906-0.854,1.655c0,0.586,0.178,1.032,0.532,1.338S412.043,127.293,412.681,127.293
		z"/>
	<path fill="#C67529" d="M424.162,128.631c-1.55,0-2.749-0.477-3.599-1.431s-1.274-2.303-1.274-4.048c0-1.79,0.432-3.174,1.294-4.15
		s2.092-1.465,3.687-1.465c0.515,0,1.028,0.056,1.543,0.166s0.918,0.241,1.211,0.391l-0.498,1.377
		c-0.358-0.144-0.749-0.262-1.172-0.356s-0.798-0.142-1.123-0.142c-2.175,0-3.262,1.387-3.262,4.16c0,1.315,0.266,2.324,0.796,3.027
		s1.316,1.055,2.358,1.055c0.892,0,1.807-0.192,2.744-0.576v1.436C426.151,128.445,425.249,128.631,424.162,128.631z"/>
	<path fill="#C67529" d="M430.007,122.957c0.28-0.397,0.706-0.918,1.279-1.562l3.457-3.662h1.924l-4.336,4.561l4.639,6.143h-1.963
		l-3.779-5.059l-1.221,1.055v4.004h-1.602V113.24h1.602v8.057c0,0.358-0.026,0.911-0.078,1.66H430.007z"/>
</g>
<g>
	<path fill="#FFFFFF" d="M290.268,164.672c2.995-0.526,5.374-0.078,7.137,1.345c0.521,0.565,0.838,1.204,0.95,1.915
		c0.066,0.422,0.043,0.871-0.071,1.348c-0.146,0.104-0.263,0.304-0.351,0.602c-0.088,0.296-0.205,0.498-0.351,0.602l-0.144,0.63
		c-0.188,0.354-0.525,0.818-1.015,1.394c-0.49,0.578-0.832,1.016-1.027,1.317c-2.039,1.969-4.138,3.122-6.298,3.463
		c-0.869,0.137-1.709,0.121-2.519-0.048c-0.357-0.214-0.726-0.453-1.104-0.716c-0.379-0.265-0.587-0.596-0.623-0.995
		c0.238-0.2,0.484-0.266,0.738-0.197c0.196,0.05,0.319,0.057,0.368,0.023c0.112-1.854,0.366-4.444,0.759-7.774
		c0.027-0.167-0.121-0.385-0.447-0.658c-0.327-0.272-0.498-0.461-0.516-0.566c-0.028-0.185,0.078-0.363,0.32-0.537
		c0.556-0.412,0.852-1.106,0.887-2.083c0.064-1.306,0.149-2.129,0.258-2.471c-0.008-0.052-0.003-0.106,0.016-0.164l-0.02-0.118
		l0.055-0.17c0.005-0.137-0.057-0.275-0.188-0.417c0.235-0.388,0.375-0.915,0.419-1.584c0.042-0.668,0.086-1.208,0.129-1.62
		c0.254-0.444,0.592-0.701,1.013-0.767c0.105-0.017,0.215-0.007,0.328,0.029c0.354,0.188,0.556,0.439,0.605,0.755
		c0.037,0.237-0.025,0.61-0.188,1.122c-0.162,0.511-0.225,0.886-0.188,1.124c-0.072,0.74-0.195,1.839-0.371,3.298
		c0.048,0.128,0.034,0.298-0.04,0.512s-0.107,0.347-0.099,0.401c2.911-2.079,5.042-4.143,6.393-6.191
		c0.279-0.288,0.419-0.688,0.419-1.2c-0.776-0.471-1.866-0.624-3.271-0.456c-0.737,0.116-1.858,0.28-3.364,0.489
		c-0.241,0.011-0.619,0.098-1.133,0.26c-0.59,0.201-0.989,0.318-1.2,0.352c-0.686,0.108-1.226-0.063-1.62-0.513
		c-0.061-0.045-0.159-0.151-0.293-0.319c-0.039-0.075-0.062-0.138-0.07-0.191c-0.025-0.158,0.023-0.315,0.148-0.469
		c0.124-0.155,0.406-0.293,0.845-0.417l0.417-0.188c0.085,0.203,0.233,0.288,0.444,0.254c0.079-0.013,0.218-0.074,0.416-0.187
		c0.198-0.112,0.363-0.179,0.495-0.2c0.264-0.041,0.539-0.004,0.827,0.113l4.07-0.642c1.649-0.152,2.981-0.011,3.994,0.423
		c0.718,0.615,1.136,1.211,1.254,1.787c-0.201,0.436-0.556,1.099-1.063,1.989c0.003,0.188-0.162,0.43-0.493,0.725
		c-0.257,0.419-1.418,1.708-3.479,3.87c-0.304,0.129-0.656,0.374-1.059,0.733c-0.521,0.46-0.842,0.742-0.961,0.841
		c-0.026,0.004-0.062,0.036-0.105,0.098L290.268,164.672z M288.78,167.053l0.189,0.172c-0.137,0.157-0.243,0.254-0.318,0.293
		c-0.075,0.039-0.125,0.061-0.151,0.064c-0.002,0.675-0.114,1.678-0.336,3.009c0.019,0.457-0.042,1.235-0.178,2.337
		c-0.138,1.101-0.168,1.889-0.094,2.363c0.038,0.237,0.098,0.444,0.179,0.62c0.355,0.025,0.801-0.059,1.337-0.251
		c0.818-0.292,1.254-0.441,1.307-0.449c1.822-1.286,3.069-2.279,3.741-2.979c1.327-1.342,2.041-2.725,2.142-4.144
		c-0.961-1.468-2.232-1.997-3.813-1.585c-0.323-0.165-0.748-0.206-1.275-0.122l-1.462,0.23
		C289.762,166.682,289.339,166.83,288.78,167.053z"/>
	<path fill="#FFFFFF" d="M309.453,171.285l-0.101,0.138c-0.12,0.1-0.151,0.24-0.096,0.419c-1.858,1.914-3.412,3.021-4.66,3.327
		c-0.707,0.138-1.426,0.116-2.156-0.065c-0.629-0.224-1.091-0.583-1.385-1.077c-0.251-0.393-0.492-1.07-0.726-2.032
		c0.16-4.291,1.623-7.855,4.389-10.693c0.101-0.043,0.396-0.143,0.884-0.301c0.408-0.146,0.771-0.122,1.084,0.072
		c0.314,0.193,0.505,0.5,0.571,0.922c0.001,0.351,0.014,0.687,0.037,1.007c-0.208,1.598-1.458,3.604-3.75,6.017
		c-0.138,0.157-0.551,0.356-1.241,0.601c-0.409,0.146-0.569,0.413-0.48,0.805c-0.252,0.633-0.312,1.196-0.18,1.688
		c0.033,0.211,0.201,0.59,0.503,1.136c0.548,0.562,1.322,0.764,2.323,0.605l0.139-0.143c0.421-0.066,0.979-0.301,1.67-0.708
		c0.667-0.563,1.739-1.381,3.219-2.451c0.042,0.102,0.07,0.192,0.083,0.271C309.606,170.978,309.563,171.133,309.453,171.285z
		 M305.802,163.033c-0.092-0.066-0.196-0.131-0.314-0.193c-1.259,1.089-2.242,2.729-2.949,4.919
		c0.131-0.021,0.268-0.096,0.409-0.227c0.563-0.709,1.126-1.419,1.689-2.129C305.272,164.466,305.66,163.676,305.802,163.033z"/>
	<path fill="#FFFFFF" d="M307.954,166.662c0.136,0.005,0.19,0.011,0.165,0.015c-0.023,0.029-0.048,0.047-0.073,0.051l0.454,0.051
		c-0.007,0.136,0.074,0.217,0.24,0.244c0.025-0.004,0.083,0.015,0.171,0.054c0.048-0.035,0.112-0.058,0.19-0.07l0.277-0.043
		c0.168,0.217,0.551,0.373,1.146,0.468c0.595,0.094,0.987,0.222,1.174,0.381c1.25,0.396,2.032,0.989,2.345,1.776
		c0.088,0.553-0.083,1.188-0.509,1.903c-0.106,0.017-0.188,0.098-0.246,0.241c-0.058,0.145-0.109,0.247-0.153,0.308
		c-1.389,1.298-2.721,2.008-3.998,2.128c-0.799,0.072-1.536-0.068-2.213-0.42c-0.343-0.811-0.503-1.136-0.478-0.978
		c-0.042-0.264,0.091-0.541,0.395-0.832c0.104,0.146,0.399,0.478,0.887,0.994c0.229,0.261,0.51,0.324,0.839,0.191
		c1.241-0.52,2.021-0.885,2.339-1.098c0.886-0.545,1.433-1.184,1.642-1.918c-0.179-0.62-1.152-1.142-2.92-1.564
		c-0.561-0.129-1.267-0.328-2.119-0.598c-0.729-0.344-1.141-0.9-1.235-1.669c0.205-0.41,0.573-0.9,1.104-1.469
		c0.7-0.705,1.126-1.163,1.282-1.376c0.326-0.322,0.859-0.716,1.596-1.183c0.335-0.269,1.183-0.794,2.545-1.576
		c0.491,0.03,0.749,0.044,0.776,0.04c0.306,0.059,0.493,0.219,0.561,0.478c0.034,0.211-0.106,0.435-0.42,0.674
		c-0.177,0.082-0.429,0.236-0.758,0.463c-0.328,0.228-0.581,0.382-0.756,0.464c-0.079,0.012-0.631,0.369-1.653,1.07
		c-1.192,0.836-2.025,1.628-2.501,2.378c0.009,0.053-0.037,0.196-0.135,0.426L307.954,166.662z"/>
	<path fill="#FFFFFF" d="M318.748,159.615c0.566-0.008,1.13-0.03,1.691-0.063c0.652,0.032,1.206,0.201,1.659,0.507l0.158,0.745
		c-0.418,0.093-1.173,0.185-2.265,0.276c-0.668,0.051-1.225,0.193-1.674,0.426c-1.194,3.563-1.576,6.444-1.148,8.645
		c0.05,0.316,0.142,0.605,0.278,0.868c0.136,0.261,0.427,0.358,0.876,0.287c0.263-0.042,0.57-0.145,0.923-0.308
		c0.285-0.072,0.72-0.356,1.303-0.854c0.583-0.496,1.162-0.804,1.738-0.921c-0.25,1.498-1.312,2.65-3.181,3.457
		c-0.229,0.091-0.436,0.15-0.619,0.179c-0.712,0.112-1.301-0.024-1.766-0.409c-0.595-0.69-0.989-1.559-1.181-2.609
		c-0.281-1.44-0.185-3.224,0.29-5.349c0.188-0.516,0.373-1.315,0.554-2.396c-0.918,0.173-1.64,0.731-2.165,1.679
		c-0.471,0.1-0.906-0.263-1.306-1.09c0.006-0.298,0.272-0.665,0.799-1.098c0.341-0.405,0.83-0.725,1.468-0.96
		c0.566-0.17,1.132-0.355,1.695-0.552c0.855-2.618,1.351-5.045,1.484-7.28c0.143-0.293,0.319-0.456,0.53-0.489
		c0.338-0.08,0.707,0.119,1.106,0.597c0.207,1.83-0.174,4.036-1.144,6.617C318.805,159.553,318.77,159.584,318.748,159.615z"/>
	<path fill="#FFFFFF" d="M338.787,164.716c-0.195,0.139-0.332,0.376-0.414,0.713c-0.114,0.477-0.193,0.746-0.237,0.808
		c-0.25,0.471-0.736,1.155-1.458,2.051c-0.612,1.256-1.67,2.085-3.172,2.485c-0.418,0.092-0.844,0.133-1.277,0.12
		c-1.105-0.339-1.918-1.21-2.436-2.612c-0.055-0.856,0.026-1.8,0.241-2.833c0.146-0.618,0.353-1.527,0.622-2.73
		c0.174-0.271,0.384-0.735,0.631-1.396c0.259-0.58,0.556-1.005,0.893-1.273c0.25-0.634,0.732-1.087,1.445-1.362
		c0.271,0.011,0.664-0.322,1.18-0.997c-0.043-0.1-0.003-0.269,0.122-0.504c0.285-0.072,0.547-0.127,0.784-0.165
		c0.396-0.062,0.718-0.072,0.967-0.03c1.2,0.593,1.941,1.785,2.225,3.576c0.07,0.448,0.111,0.921,0.122,1.418
		C339.035,162.484,338.956,163.394,338.787,164.716z M337.224,159.173c-0.171-0.568-0.496-0.921-0.978-1.061l-1.639,0.906
		l0.47,0.412c0.071,0.286,0.165,0.703,0.278,1.251c0.075,0.475-0.01,0.879-0.254,1.214c-0.12,0.1-0.242,0.173-0.37,0.22
		c-0.365,0.085-0.671-0.312-0.917-1.191c-0.22,0.143-0.479,0.468-0.778,0.973c-0.365,0.597-0.629,0.976-0.792,1.138
		c-0.488,1.696-0.738,2.681-0.749,2.953c-0.129,0.722-0.145,1.399-0.045,2.032c0.05,0.315,0.126,0.628,0.229,0.936
		c0.227,0.234,0.646,0.33,1.261,0.287c2.866-1.343,4.477-4.053,4.833-8.131C337.578,160.385,337.394,159.739,337.224,159.173z"/>
	<path fill="#FFFFFF" d="M345.841,146.029c0.108,0.173,0.24,0.327,0.397,0.465c0.073,0.124,0.082,0.35,0.026,0.683
		c-0.079,0.013-0.13,0.035-0.152,0.065l0.057,0.355c-0.146,0.104-0.232,0.239-0.26,0.405l0.031,0.197
		c0.009,0.404-0.12,0.695-0.39,0.871c-0.299,0.156-0.593,0.094-0.879-0.185l-0.098-0.105c-0.035-0.05-0.124-0.103-0.269-0.161
		c0.121-0.774,0.24-1.9,0.358-3.377l-0.142-0.382c-0.049,0.035-0.185,0.286-0.407,0.753c0.101,0.469-0.005,0.742-0.316,0.818
		c-0.778,2.769-1.384,5.268-1.815,7.494l-0.004,0.487c0.267-0.015,0.629-0.126,1.082-0.333c0.453-0.207,0.771-0.324,0.956-0.354
		c0.417-0.092,0.857-0.041,1.32,0.156l0.031,0.197c0.034,0.049,0.054,0.086,0.059,0.112l0.064,0.152
		c0.034,0.048,0.064,0.152,0.089,0.31c-0.928,0.281-2.239,0.867-3.935,1.754c-0.175,1.971-0.386,4.232-0.632,6.781
		c-0.142,1.156-0.285,2.299-0.432,3.429c-0.217,1.87-0.302,2.963-0.252,3.28c-0.121,0.261-0.132,0.614-0.035,1.058
		c0.288,0.116,0.469,0.316,0.54,0.604c0.017,0.104,0.012,0.417-0.015,0.933c-0.049,0.035-0.105,0.185-0.172,0.452
		c-0.064,0.267-0.211,0.459-0.436,0.575c-0.491-0.03-0.959-0.43-1.403-1.197c-0.088-0.39-0.132-1.005-0.129-1.842
		c0.016-0.246,0.133-1.303,0.351-3.173c0.179-1.782,0.272-2.728,0.281-2.839c0.01-0.109,0.092-0.918,0.244-2.427
		c0.154-1.508,0.229-2.358,0.227-2.546c-0.02-0.294,0.028-0.504,0.144-0.63c0.029-0.842,0.053-1.466,0.069-1.874
		c-0.109-0.01-0.291,0.04-0.544,0.146c-0.253,0.108-0.419,0.167-0.498,0.18c-0.391,0.09-0.677-0.096-0.856-0.553l-0.17-0.824
		c0.168-0.134,0.383-0.229,0.644-0.285c0.261-0.053,0.665-0.145,1.212-0.272c0.547-0.125,0.751-0.461,0.611-1.006
		c0.067-0.254,0.394-1.87,0.977-4.851c0.385-2.005,0.793-3.608,1.226-4.811c0.421-0.579,0.824-1.102,1.21-1.568
		c0.2-0.273,0.444-0.434,0.734-0.48c0.391-0.088,0.784,0.093,1.179,0.543c0.172,0.405,0.287,0.792,0.346,1.161
		C346.167,145.006,346.091,145.559,345.841,146.029z"/>
	<path fill="#FFFFFF" d="M359.214,153.802c2.994-0.526,5.373-0.077,7.136,1.345c0.521,0.565,0.839,1.204,0.95,1.915
		c0.066,0.422,0.043,0.871-0.07,1.348c-0.146,0.104-0.263,0.304-0.351,0.602c-0.089,0.296-0.205,0.498-0.351,0.602l-0.144,0.63
		c-0.188,0.354-0.526,0.819-1.016,1.394c-0.489,0.578-0.832,1.016-1.027,1.317c-2.038,1.969-4.138,3.122-6.298,3.463
		c-0.869,0.137-1.708,0.121-2.518-0.048c-0.358-0.214-0.727-0.453-1.105-0.717c-0.379-0.264-0.586-0.596-0.623-0.995
		c0.24-0.2,0.485-0.266,0.739-0.197c0.196,0.05,0.319,0.057,0.368,0.023c0.112-1.854,0.365-4.444,0.758-7.774
		c0.028-0.167-0.121-0.385-0.447-0.658c-0.327-0.272-0.498-0.461-0.515-0.566c-0.029-0.185,0.077-0.363,0.32-0.537
		c0.556-0.412,0.852-1.106,0.886-2.083c0.064-1.306,0.15-2.129,0.259-2.471c-0.009-0.052-0.003-0.106,0.015-0.164l-0.019-0.118
		l0.054-0.171c0.006-0.137-0.057-0.275-0.188-0.417c0.236-0.388,0.376-0.915,0.419-1.584c0.043-0.668,0.086-1.208,0.129-1.62
		c0.254-0.444,0.592-0.701,1.014-0.768c0.104-0.016,0.214-0.006,0.328,0.029c0.354,0.188,0.555,0.439,0.604,0.756
		c0.038,0.237-0.025,0.61-0.187,1.122c-0.163,0.511-0.225,0.886-0.188,1.124c-0.072,0.74-0.196,1.839-0.371,3.298
		c0.047,0.128,0.033,0.298-0.04,0.512c-0.075,0.214-0.107,0.347-0.1,0.401c2.912-2.08,5.043-4.143,6.394-6.191
		c0.279-0.287,0.418-0.688,0.418-1.2c-0.776-0.471-1.866-0.624-3.271-0.456c-0.737,0.116-1.859,0.28-3.365,0.489
		c-0.24,0.011-0.619,0.098-1.133,0.26c-0.589,0.201-0.989,0.318-1.2,0.352c-0.685,0.108-1.225-0.063-1.619-0.514
		c-0.062-0.045-0.159-0.151-0.293-0.319c-0.039-0.075-0.062-0.138-0.071-0.191c-0.024-0.158,0.024-0.315,0.149-0.469
		c0.123-0.155,0.405-0.293,0.845-0.417l0.416-0.188c0.086,0.203,0.234,0.288,0.445,0.254c0.079-0.012,0.217-0.074,0.416-0.187
		c0.197-0.112,0.363-0.179,0.494-0.2c0.264-0.041,0.54-0.004,0.828,0.113l4.069-0.642c1.65-0.152,2.981-0.012,3.995,0.423
		c0.718,0.615,1.136,1.211,1.253,1.787c-0.2,0.436-0.555,1.099-1.062,1.989c0.003,0.189-0.162,0.43-0.493,0.725
		c-0.258,0.419-1.418,1.709-3.48,3.87c-0.303,0.129-0.656,0.374-1.058,0.733c-0.521,0.46-0.843,0.741-0.961,0.841
		c-0.026,0.004-0.062,0.036-0.106,0.098L359.214,153.802z M357.727,156.183l0.188,0.172c-0.137,0.157-0.243,0.255-0.317,0.293
		c-0.075,0.039-0.126,0.061-0.151,0.065c-0.002,0.675-0.114,1.678-0.336,3.009c0.018,0.456-0.042,1.235-0.179,2.337
		c-0.137,1.101-0.168,1.889-0.093,2.362c0.037,0.237,0.097,0.444,0.179,0.621c0.354,0.025,0.8-0.059,1.337-0.252
		c0.817-0.291,1.253-0.441,1.307-0.449c1.821-1.286,3.068-2.279,3.741-2.979c1.327-1.342,2.04-2.725,2.141-4.144
		c-0.96-1.468-2.231-1.997-3.813-1.585c-0.323-0.166-0.748-0.206-1.274-0.123l-1.462,0.23
		C358.708,155.812,358.286,155.959,357.727,156.183z"/>
	<path fill="#FFFFFF" d="M371.793,154.734c0.668-1.239,1.388-2.413,2.158-3.52c0.771-1.105,1.701-1.799,2.79-2.079
		c0.492-0.132,0.966-0.125,1.421,0.019c0.352,0.35,0.589,0.744,0.713,1.184c0.037,0.237,0.046,0.978,0.026,2.223l-0.54,0.167
		c-0.104-0.146-0.267-0.66-0.487-1.543c-0.132-0.492-0.303-0.802-0.511-0.932c-1.229,0.599-2.285,1.603-3.17,3.011
		c-0.418,0.605-0.822,1.208-1.213,1.811c-0.453,0.719-0.727,1.383-0.82,1.992c-0.18,0.056-0.297,0.425-0.352,1.108
		c-0.058,0.495-0.128,0.817-0.213,0.964c-0.17,0.459-0.387,1.398-0.648,2.816c0.06,0.207,0.128,0.642,0.205,1.303
		c-0.019,0.57-0.228,0.954-0.628,1.152c-0.135-0.167-0.248-0.203-0.341-0.108c-0.111,0.154-0.219,0.238-0.325,0.254
		c-0.21,0.033-0.422-0.109-0.634-0.426c0.182-1.594,0.544-5.283,1.09-11.064c-0.143-0.221-0.227-0.411-0.251-0.569
		c-0.046-0.289,0.109-0.503,0.466-0.64c0.845-0.295,1.332-0.196,1.464,0.296c0.009,0.053-0.007,0.21-0.047,0.473
		c-0.039,0.263-0.015,0.59,0.074,0.981c-0.154,0.051-0.241,0.105-0.259,0.162c0.009,0.053,0.042,0.183,0.103,0.388l-0.062,0.375
		C371.814,154.61,371.81,154.678,371.793,154.734z"/>
	<path fill="#FFFFFF" d="M384.443,159.462l-0.1,0.138c-0.119,0.1-0.151,0.24-0.096,0.419c-1.858,1.914-3.411,3.021-4.658,3.327
		c-0.708,0.138-1.427,0.116-2.157-0.065c-0.63-0.224-1.091-0.584-1.384-1.077c-0.252-0.393-0.493-1.07-0.726-2.032
		c0.159-4.291,1.622-7.855,4.388-10.693c0.101-0.043,0.396-0.144,0.884-0.301c0.408-0.146,0.771-0.122,1.084,0.072
		c0.314,0.192,0.505,0.5,0.571,0.921c0.001,0.352,0.014,0.687,0.037,1.007c-0.207,1.598-1.456,3.604-3.748,6.017
		c-0.138,0.157-0.552,0.356-1.242,0.601c-0.409,0.146-0.569,0.413-0.48,0.804c-0.252,0.633-0.311,1.196-0.179,1.688
		c0.033,0.211,0.2,0.59,0.503,1.136c0.547,0.562,1.321,0.763,2.322,0.605l0.139-0.143c0.422-0.066,0.979-0.301,1.671-0.708
		c0.666-0.563,1.739-1.381,3.218-2.451c0.042,0.102,0.07,0.192,0.083,0.27C384.597,159.154,384.554,159.31,384.443,159.462z
		 M380.793,151.21c-0.091-0.067-0.196-0.131-0.313-0.194c-1.26,1.089-2.242,2.729-2.95,4.92c0.131-0.021,0.269-0.096,0.41-0.227
		c0.562-0.709,1.125-1.42,1.688-2.129C380.263,152.642,380.652,151.853,380.793,151.21z"/>
	<path fill="#FFFFFF" d="M391.833,158.296l-0.1,0.138c-0.12,0.1-0.151,0.24-0.096,0.419c-1.858,1.914-3.411,3.021-4.659,3.327
		c-0.707,0.137-1.426,0.115-2.156-0.065c-0.63-0.224-1.092-0.584-1.385-1.077c-0.251-0.393-0.492-1.07-0.726-2.032
		c0.16-4.291,1.623-7.855,4.389-10.693c0.101-0.043,0.395-0.144,0.884-0.301c0.408-0.146,0.771-0.122,1.084,0.072
		c0.314,0.192,0.505,0.5,0.571,0.922c0,0.351,0.013,0.686,0.037,1.007c-0.208,1.598-1.457,3.604-3.749,6.017
		c-0.138,0.157-0.551,0.356-1.241,0.601c-0.41,0.146-0.57,0.413-0.48,0.804c-0.252,0.633-0.312,1.196-0.18,1.688
		c0.033,0.211,0.2,0.59,0.503,1.136c0.547,0.562,1.321,0.763,2.323,0.605l0.139-0.143c0.421-0.066,0.978-0.301,1.67-0.708
		c0.667-0.563,1.739-1.381,3.218-2.451c0.043,0.102,0.071,0.192,0.083,0.27C391.987,157.989,391.943,158.145,391.833,158.296z
		 M388.183,150.045c-0.092-0.067-0.197-0.131-0.314-0.194c-1.26,1.089-2.242,2.729-2.949,4.92c0.131-0.021,0.268-0.096,0.409-0.227
		c0.562-0.709,1.126-1.42,1.689-2.129C387.652,151.477,388.042,150.688,388.183,150.045z"/>
	<path fill="#FFFFFF" d="M397.811,156.666c-0.521,0.973-1.03,1.944-1.525,2.913c-0.693,1.081-1.501,1.695-2.423,1.84
		c-0.395,0.062-0.816,0.048-1.262-0.044c-0.72-0.454-1.152-1.142-1.298-2.063c-0.096-0.606-0.108-1.292-0.041-2.059
		c-0.02-0.807,0.124-2.381,0.43-4.724c0.057-0.496,0.291-1.235,0.703-2.217l0.732-1.777c0.376-0.869,0.92-1.359,1.631-1.471
		c0.421-0.066,1.059,0.292,1.911,1.075c0.059,0.207,0.185,0.403,0.376,0.589c0.011-1.297,0.182-3.214,0.511-5.75
		c-0.029-0.184,0.092-0.958,0.362-2.325c0.112-0.314,0.312-0.494,0.604-0.54c0.474-0.075,0.841,0.111,1.1,0.556
		c0.44,2.279,0.502,4.982,0.186,8.109c-0.091,0.797-0.354,1.865-0.791,3.202c-0.258,0.77-0.312,1.616-0.167,2.538
		c0.149,0.948,0.468,1.775,0.958,2.481c0.312,0.275,0.628,0.388,0.944,0.338c0.158-0.025,0.308-0.104,0.449-0.233
		c0.348-0.191,0.686-0.526,1.015-1.011c0.235-0.388,0.482-0.792,0.741-1.209c0.149-0.241,0.48-0.549,0.987-0.926
		c0.09,0.229,0.149,0.436,0.179,0.62c-0.024,0.193-0.133,0.697-0.328,1.509c-0.662,0.942-1.062,1.491-1.199,1.647
		c-0.527,0.597-1.08,0.94-1.659,1.031c-0.264,0.042-0.549,0.033-0.854-0.027C399.19,158.393,398.433,157.702,397.811,156.666z
		 M397.018,151.891c-0.087-0.203-0.1-0.714-0.04-1.533c-0.415-0.069-0.804-0.305-1.164-0.708l-0.247-0.285
		c-0.17-0.216-0.354-0.362-0.556-0.438c-0.653,0.994-1.224,2.339-1.712,4.035l0.022,0.402c-0.258,0.418-0.428,1.391-0.512,2.915
		c0.048,1.503,0.091,2.375,0.128,2.612c0.054,0.342,0.146,0.666,0.274,0.969c0.047,0.129,0.229,0.167,0.545,0.117
		c1.34-0.914,2.468-2.751,3.383-5.515c-0.064-0.233-0.078-0.837-0.043-1.814C397.101,152.512,397.076,152.259,397.018,151.891z"/>
</g>
<g>
	<path fill="#FFFFFF" d="M426.21,91.098c-0.367,0-0.656-0.053-0.867-0.158v-0.85c0.277,0.078,0.566,0.117,0.867,0.117
		c0.387,0,0.681-0.117,0.882-0.352s0.302-0.572,0.302-1.014v-8.566h0.996v8.484c0,0.742-0.188,1.317-0.562,1.726
		S426.913,91.098,426.21,91.098z"/>
	<path fill="#FFFFFF" d="M434.897,86.563c0,0.754-0.273,1.342-0.82,1.764s-1.289,0.633-2.227,0.633
		c-1.016,0-1.797-0.131-2.344-0.393v-0.961c0.352,0.148,0.734,0.266,1.148,0.352s0.824,0.129,1.23,0.129
		c0.664,0,1.164-0.126,1.5-0.378s0.504-0.603,0.504-1.052c0-0.297-0.06-0.54-0.179-0.729s-0.318-0.364-0.598-0.524
		s-0.704-0.342-1.274-0.545c-0.797-0.285-1.366-0.623-1.708-1.014s-0.513-0.9-0.513-1.529c0-0.66,0.248-1.186,0.744-1.576
		s1.152-0.586,1.969-0.586c0.852,0,1.635,0.156,2.35,0.469l-0.311,0.867c-0.707-0.297-1.395-0.445-2.062-0.445
		c-0.527,0-0.939,0.113-1.236,0.34s-0.445,0.541-0.445,0.943c0,0.297,0.055,0.54,0.164,0.729s0.294,0.363,0.554,0.521
		s0.657,0.333,1.192,0.524c0.898,0.32,1.517,0.664,1.854,1.031S434.897,85.977,434.897,86.563z"/>
</g>
</svg>
